<?xml version="1.0" encoding="UTF-8" standalone="no"?>
<!-- Created with Inkscape (http://www.inkscape.org/) -->

<svg
   xmlns:dc="http://purl.org/dc/elements/1.1/"
   xmlns:cc="http://creativecommons.org/ns#"
   xmlns:rdf="http://www.w3.org/1999/02/22-rdf-syntax-ns#"
   xmlns:svg="http://www.w3.org/2000/svg"
   xmlns="http://www.w3.org/2000/svg"
   xmlns:sodipodi="http://sodipodi.sourceforge.net/DTD/sodipodi-0.dtd"
   xmlns:inkscape="http://www.inkscape.org/namespaces/inkscape"
   width="744.09448819"
   height="1052.3622047"
   id="svg2"
   version="1.1"
   inkscape:version="0.48.4 r9939"
   sodipodi:docname="New document 1">
  <defs
     id="defs4" />
  <sodipodi:namedview
     id="base"
     pagecolor="#ffffff"
     bordercolor="#666666"
     borderopacity="1.0"
     inkscape:pageopacity="0.0"
     inkscape:pageshadow="2"
     inkscape:zoom="0.64"
     inkscape:cx="89.287194"
     inkscape:cy="437.59565"
     inkscape:document-units="px"
     inkscape:current-layer="layer1"
     showgrid="true"
     inkscape:window-width="1920"
     inkscape:window-height="1027"
     inkscape:window-x="0"
     inkscape:window-y="28"
     inkscape:window-maximized="1">
    <inkscape:grid
       type="xygrid"
       id="grid3848" />
  </sodipodi:namedview>
  <metadata
     id="metadata7">
    <rdf:RDF>
      <cc:Work
         rdf:about="">
        <dc:format>image/svg+xml</dc:format>
        <dc:type
           rdf:resource="http://purl.org/dc/dcmitype/StillImage" />
        <dc:title></dc:title>
      </cc:Work>
    </rdf:RDF>
  </metadata>
  <g
     inkscape:label="Layer 1"
     inkscape:groupmode="layer"
     id="layer1">
    <path
       style="fill:#ff0000;fill-opacity:1;stroke:#000000;stroke-opacity:1"
       id="path4125"
       d="m 70.117505,296.63735 c 0.630666,1.12608 1.251211,2.25734 1.851556,3.39991 1.111195,2.1135 2.112573,4.28118 3.086,6.46067 1.350503,3.03041 2.547874,6.12566 3.740333,9.22068 1.439535,3.74251 2.73898,7.53544 3.982756,11.34669 1.382385,4.33701 2.622148,8.71774 3.827917,13.10656 1.266904,4.60395 2.368205,9.25057 3.44951,13.90082 1.084572,4.63516 2.12763,9.27983 3.162688,13.92624 1.044852,4.67591 2.080708,9.35383 3.121495,14.03065 1.05273,4.74515 2.089224,9.49389 3.124558,14.24286 1.052092,4.8013 2.102852,9.60291 3.164642,14.40208 1.05777,4.84614 2.1493,9.68482 3.22138,14.5278 1.03708,4.74809 1.9977,9.51246 2.93703,14.28071 0.85258,4.33868 1.64286,8.68931 2.45091,13.03644 0.63797,3.42284 1.31473,6.83822 2.02658,10.24642 0.42414,1.97953 0.85373,3.96992 1.63222,5.84513 0.49983,0.96645 0.60956,1.0819 0.78594,0.005 -27.29649,15.65186 -16.752134,12.4956 -13.5267,6.01558 0.87559,-1.97544 1.51328,-4.04453 2.16887,-6.10018 0.80756,-2.5863 1.60668,-5.17534 2.38562,-7.77041 0.93448,-3.1358 1.74988,-6.30443 2.54077,-9.47883 0.81769,-3.29359 1.60817,-6.59395 2.34124,-9.90743 0.74235,-3.45371 1.47764,-6.90902 2.18588,-10.36991 0.67606,-3.3616 1.33,-6.7275 2.0036,-10.08958 0.71007,-3.57314 1.36644,-7.15662 2.04809,-10.73524 0.69715,-3.78323 1.42908,-7.55987 2.15091,-11.33843 0.73434,-3.84634 1.43124,-7.69957 2.13466,-11.55162 0.61853,-3.37832 1.27329,-6.7498 1.94661,-10.11757 0.46707,-2.32268 0.90148,-4.65812 1.72277,-6.88614 3.26721,-6.59633 12.28781,-13.72233 19.29669,-10.4474 1.96051,1.1656 3.44435,2.92548 4.87641,4.66464 2.07855,2.63541 3.95384,5.42281 5.75553,8.25213 2.39592,3.81337 4.53353,7.77841 6.62893,11.76206 2.19615,4.25058 4.35035,8.52151 6.41069,12.83956 2.14202,4.48319 4.15223,9.02663 6.10691,13.594 2.01651,4.82308 4.00516,9.65789 5.98801,14.49491 1.94433,4.9184 3.8605,9.84839 5.74255,14.79097 1.90669,5.01658 3.80896,10.03472 5.77275,15.02929 1.56682,3.9312 3.32579,7.78131 5.09721,11.62333 1.36635,2.66901 2.29763,5.60205 4.11614,8.01277 0.15668,0.1395 0.28845,0.31348 0.47005,0.41851 0.55082,0.31859 0.89434,-0.99905 0.59571,-0.83773 -15.14937,8.18393 -18.25603,14.0152 -14.88904,8.03807 1.12139,-2.79901 1.5333,-5.82611 2.03185,-8.78336 0.81306,-4.92299 1.50152,-9.86531 2.16437,-14.81038 0.75588,-5.76072 1.4051,-11.53471 2.06225,-17.30732 0.73137,-6.41566 1.43477,-12.83432 2.22049,-19.24363 0.80844,-6.81839 1.80955,-13.6108 2.89572,-20.38977 1.06401,-6.52025 2.30596,-13.00961 3.56449,-19.49455 1.13153,-5.80056 2.27342,-11.59909 3.40688,-17.39927 0.96592,-5.45122 2.34945,-10.81083 3.90683,-16.11908 1.63264,-5.4934 3.6486,-10.85867 5.76389,-16.18098 2.07135,-5.26492 4.42642,-10.40726 6.92497,-15.48093 2.50884,-5.09683 5.42687,-9.97025 8.49659,-14.74453 3.08317,-4.79168 6.61013,-9.25924 10.42405,-13.48407 3.85491,-4.28803 8.43118,-7.7677 13.2111,-10.94548 0.78972,-0.49671 1.57944,-0.99341 2.36916,-1.49012 0,0 16.75415,-6.48986 16.75415,-6.48986 l 0,0 c -0.7982,0.48566 -1.5964,0.97132 -2.3946,1.45698 -4.80615,3.0532 -9.47153,6.34616 -13.37948,10.52975 -3.86948,4.11164 -7.43298,8.48784 -10.54406,13.20752 -3.09675,4.70523 -6.03472,9.5159 -8.57127,14.55057 -2.52224,5.03063 -4.91378,10.12515 -6.99727,15.35569 -2.12862,5.27285 -4.17244,10.58333 -5.82698,16.02765 -1.57985,5.2528 -2.97362,10.56168 -3.96163,15.9611 -1.17648,5.81704 -2.36321,11.63201 -3.525,17.452 -1.28751,6.47503 -2.54613,12.95662 -3.6434,19.46709 -1.10794,6.7544 -2.12494,13.52383 -2.92062,20.32303 -0.76857,6.38469 -1.4358,12.78043 -2.1189,19.1747 -0.63605,5.77367 -1.28885,11.54561 -1.99978,17.31061 -0.61271,4.91757 -1.2471,9.83249 -1.92015,14.7422 -0.43307,3.03768 -0.82477,6.09383 -1.59089,9.06992 -2.22832,7.21703 -13.81553,16.16198 -18.92196,9.47333 -1.635,-2.65353 -2.70696,-5.60536 -4.0512,-8.40875 -1.74266,-3.89968 -3.46079,-7.81216 -4.98845,-11.80229 -1.91296,-5.01838 -3.77868,-10.05471 -5.72273,-15.06123 -1.91245,-4.91605 -3.80124,-9.84163 -5.77448,-14.73375 -1.95403,-4.83642 -3.90785,-9.67373 -5.95398,-14.47206 -1.96675,-4.53499 -3.99367,-9.0436 -6.13357,-13.49996 -2.04662,-4.29656 -4.16324,-8.55902 -6.36175,-12.78012 -2.0906,-3.92504 -4.23492,-7.82566 -6.66714,-11.55244 -1.81371,-2.73483 -3.69062,-5.43384 -5.78876,-7.96067 -1.24067,-1.41535 -2.55674,-3.0676 -4.4277,-3.6232 -0.34,0.007 -1.29509,0.36967 -1.00042,0.19993 5.16187,-2.97351 10.34674,-5.90691 15.5201,-8.86037 -0.72246,0.10498 -1.19389,0.27143 -1.63061,0.90941 -1.20959,1.99461 -1.56831,4.32723 -2.09106,6.57009 -0.72081,3.37071 -1.41691,6.74673 -2.06316,10.13261 -0.72668,3.85046 -1.40831,7.7093 -2.13459,11.55986 -0.71271,3.77582 -1.45254,7.54654 -2.13841,11.32738 -0.65937,3.57924 -1.32172,7.158 -2.00263,10.7332 -0.6567,3.37053 -1.32118,6.73953 -2.00594,10.10449 -0.70878,3.46303 -1.43573,6.92217 -2.16238,10.3815 -0.70587,3.3339 -1.49386,6.64842 -2.31611,9.95553 -0.78359,3.18122 -1.55486,6.3657 -2.44758,9.51874 -0.73854,2.59581 -1.52105,5.17866 -2.29716,7.76335 -0.63311,2.08869 -1.26623,4.17977 -2.00292,6.23461 -2.93879,7.9906 -7.32152,7.7337 -18.09325,13.16446 -1.1052,-0.44016 -1.815847,-1.2961 -2.237329,-2.4009 -0.745901,-2.01999 -1.158203,-4.13564 -1.568736,-6.24472 -0.667037,-3.44476 -1.300604,-6.89584 -1.903133,-10.3525 -0.767737,-4.35553 -1.529729,-8.71228 -2.3654,-13.05545 -0.913732,-4.76148 -1.849238,-9.51925 -2.889028,-14.2551 -1.064471,-4.84459 -2.152761,-9.6839 -3.215345,-14.52891 -1.065496,-4.79891 -2.125111,-9.59913 -3.18392,-14.39951 -1.031601,-4.74737 -2.066915,-9.49397 -3.111859,-14.23842 -1.04816,-4.67325 -2.108673,-9.34374 -3.149346,-14.01868 -1.026318,-4.64391 -2.052726,-9.28796 -3.138815,-13.91834 -1.075397,-4.62606 -2.172638,-9.24815 -3.429435,-13.82896 -1.201462,-4.35485 -2.449828,-8.69782 -3.847821,-12.99428 -1.249413,-3.77035 -2.547071,-7.52521 -4.008793,-11.21954 -1.203674,-3.04896 -2.418651,-6.0961 -3.797445,-9.07115 -0.987248,-2.12069 -2.002679,-4.22999 -3.15096,-6.26937 -0.624175,-1.0964 -1.257279,-2.18852 -1.949348,-3.24392 0,0 16.165418,-9.38316 16.165418,-9.38316 z"
       inkscape:connector-curvature="0" />
    <path
       style="fill:#ff0000;fill-opacity:1;stroke:#000000;stroke-opacity:1"
       id="path4127"
       d="m 272.27294,422.19479 c 1.19024,0.74906 2.47466,1.32007 3.77813,1.83819 2.12835,0.80241 4.3321,1.377 6.53687,1.92424 2.53691,0.62086 5.1164,1.02838 7.71346,1.28642 2.5495,0.18519 5.11435,0.39867 7.66957,0.24713 2.84322,-0.16808 5.624,-0.8199 8.39129,-1.4535 2.73702,-0.69386 5.48935,-1.34998 8.15529,-2.28673 5.5459,-3.10108 13.63359,-7.54861 -12.19527,7.00358 -0.4099,0.23094 0.78442,-0.52054 1.16173,-0.80157 0.99019,-0.73749 1.25484,-1.02286 2.16302,-1.85577 2.14841,-1.99792 3.76696,-4.40625 5.13613,-6.97861 1.36041,-2.709 2.30181,-5.59046 3.01394,-8.52895 0.72396,-3.10628 0.81016,-6.29136 0.72175,-9.46353 -0.13314,-3.35105 -0.70047,-6.65604 -1.41398,-9.92566 -0.69687,-3.16469 -1.81453,-6.2044 -3.2384,-9.10863 -1.27347,-2.61707 -3.17404,-4.70558 -5.49413,-6.41876 -2.33321,-1.57973 -4.96602,-2.55711 -7.64785,-3.35392 -2.75873,-0.76673 -5.60621,-1.01654 -8.45769,-1.04321 -2.9952,-0.043 -5.93812,0.45021 -8.8205,1.22224 -2.96055,0.85293 -5.78238,2.08982 -8.57322,3.37847 3.93607,-2.67775 -8.24524,4.63269 -4.17295,2.294 25.44938,-14.61539 16.7814,-9.92797 11.42351,-6.39115 -2.89272,1.91932 -5.50373,4.20867 -8.01127,6.59835 -2.58469,2.48755 -4.81876,5.29575 -6.94551,8.17489 -2.21564,2.97366 -3.92606,6.2601 -5.4598,9.6232 -1.5372,3.44307 -2.69725,7.02937 -3.67411,10.66572 -0.92816,3.6452 -1.46174,7.37121 -1.90177,11.1016 -0.42826,3.84222 -0.46736,7.70842 -0.36074,11.56806 0.11804,4.07001 0.57628,8.11174 1.25283,12.12326 0.72195,4.07988 1.97641,8.03192 3.43833,11.89955 1.4666,3.9284 3.50917,7.58587 5.66899,11.16553 2.20302,3.62744 4.85516,6.93514 7.63618,10.12855 2.89146,3.27926 6.02927,6.32035 9.32541,9.18781 3.26467,2.81773 6.7797,5.31463 10.37982,7.67984 3.41552,2.21194 7.05303,4.04684 10.77762,5.67284 3.47247,1.56316 7.11681,2.5325 10.86554,3.12275 3.69636,0.45266 7.45599,0.43232 11.14922,-0.0235 3.96624,-0.57809 7.71596,-2.00466 11.3765,-3.5795 0.63719,-0.30235 1.281,-0.59113 1.91157,-0.90706 5.57052,-2.7909 15.62361,-8.69804 -9.70525,5.69219 -0.67539,0.38371 1.33085,-0.80173 1.98742,-1.21682 0.6668,-0.42156 1.32153,-0.86191 1.98229,-1.29287 4.12531,-2.69772 7.86021,-5.91187 11.4625,-9.26042 4.20648,-3.94268 7.91059,-8.35196 11.34179,-12.97239 4.12281,-5.63748 7.29724,-11.85964 10.26725,-18.15633 0.51153,-1.1418 1.02307,-2.2836 1.53461,-3.42541 0,0 16.08126,-7.36541 16.08126,-7.36541 l 0,0 c -0.50489,1.15011 -1.00978,2.30022 -1.51467,3.45033 -2.90396,6.34671 -5.9539,12.65319 -9.96079,18.39459 -3.32788,4.70262 -6.93688,9.19214 -11.07379,13.21739 -3.53631,3.43312 -7.21505,6.73124 -11.28902,9.52327 -8.64666,5.91443 -17.75263,11.2444 -27.29616,15.56687 -3.7863,1.50006 -7.67169,2.80636 -11.75252,3.19019 -3.81035,0.2698 -7.65583,0.26998 -11.43253,-0.37731 -3.83273,-0.73379 -7.54972,-1.86252 -11.09661,-3.5121 -3.768,-1.72929 -7.45877,-3.63647 -10.91002,-5.94497 -3.63658,-2.44045 -7.18779,-5.01119 -10.48939,-7.89573 -3.33914,-2.94032 -6.51796,-6.05425 -9.46137,-9.39429 -2.84397,-3.2771 -5.5589,-6.67052 -7.81399,-10.38858 -2.21276,-3.67382 -4.30415,-7.4266 -5.82846,-11.44794 -1.5223,-3.96588 -2.83234,-8.01789 -3.61529,-12.20151 -0.72479,-4.0803 -1.23097,-8.19206 -1.3865,-12.33708 -0.15267,-3.93 -0.17336,-7.8687 0.21271,-11.78801 0.40114,-3.80697 0.93003,-7.603 1.79255,-11.3364 0.92767,-3.72398 2.04203,-7.3986 3.54781,-10.93491 1.48295,-3.45928 3.10854,-6.86806 5.27779,-9.95987 2.09034,-2.95944 4.28558,-5.85373 6.81476,-8.45727 2.4602,-2.47533 5.02465,-4.85534 7.86684,-6.89233 7.62867,-5.32096 15.77135,-9.92351 24.13943,-13.97216 2.85085,-1.24429 5.75187,-2.3996 8.78951,-3.10768 3.00393,-0.62471 6.05052,-0.99021 9.1257,-0.84304 2.96471,0.16077 5.91863,0.53335 8.75584,1.45086 2.82366,0.95077 5.58859,2.10469 7.99853,3.89268 2.45652,1.97184 4.50036,4.30513 5.88598,7.16285 1.48602,3.03442 2.66987,6.20294 3.42369,9.50302 0.75631,3.36448 1.37606,6.76362 1.57712,10.21263 0.15567,3.29837 0.15209,6.61361 -0.48396,9.86935 -0.62333,3.07213 -1.53053,6.06879 -2.81476,8.93475 -1.28852,2.72418 -2.75277,5.34571 -4.87501,7.52422 -6.15067,6.45487 -14.37004,10.69968 -22.63302,13.93287 -2.71809,0.8003 -5.46323,1.5085 -8.22933,2.12346 -2.84982,0.60375 -5.72305,1.16596 -8.64732,1.20564 -2.6089,-0.0165 -5.21779,-0.16755 -7.81034,-0.46449 -2.6479,-0.34809 -5.28141,-0.79863 -7.86743,-1.47603 -2.28571,-0.58745 -4.57045,-1.20573 -6.76558,-2.08225 -1.39981,-0.58649 -2.77784,-1.22724 -4.07236,-2.0245 0,0 15.68058,-10.10524 15.68058,-10.10524 z"
       inkscape:connector-curvature="0" />
    <path
       style="fill:#ff0000;fill-opacity:1;stroke:#000000;stroke-opacity:1"
       id="path4131"
       d="m 473.67662,363.90175 c -1.46445,-0.0976 -2.9317,-0.13888 -4.39683,-0.22306 -2.22019,-0.13127 -4.44155,-0.24068 -6.66319,-0.34387 -2.45266,-0.14325 -4.90846,-0.12885 -7.3589,0.0331 -2.27878,0.12631 -4.52428,0.43183 -6.70972,1.09153 -6.68691,2.31567 -17.26855,9.19005 10.30959,-6.56563 -1.97599,1.06546 -3.55419,2.60629 -4.93084,4.35249 -1.60208,2.1782 -2.8548,4.58158 -4.01694,7.01487 -1.24898,2.64586 -1.97796,5.47414 -2.53123,8.33389 -0.53219,2.84106 -0.77268,5.71819 -0.69346,8.60535 0.13004,3.0529 1.00544,5.97608 2.04039,8.82699 1.09892,2.92359 2.77709,5.55531 4.66356,8.02483 2.05579,2.631 4.85239,4.3731 7.72713,5.96998 3.21523,1.71746 6.60897,3.06267 10.02144,4.32886 3.55326,1.30704 7.19974,2.33044 10.81901,3.43271 3.67647,1.0487 7.21888,2.4919 10.72367,4.005 3.50327,1.47851 6.63935,3.60838 9.64179,5.91043 2.81428,2.22964 5.43789,4.68062 7.92882,7.26275 2.43076,2.49378 4.2138,5.45073 5.65767,8.59519 1.41987,3.21335 2.11715,6.64983 2.55413,10.11554 0.38715,3.54374 0.1555,7.09378 -0.35611,10.60844 -0.56578,3.65237 -1.96533,7.03938 -3.6779,10.28489 -1.91172,3.42238 -4.38783,6.47117 -6.93339,9.43413 -2.4726,2.92519 -5.35447,5.42866 -8.42816,7.69489 -8.26082,5.4744 -16.72518,10.84254 -26.05887,14.23911 -4.14168,1.42476 -8.42145,2.39279 -12.72317,3.18571 -4.40234,0.8132 -8.8639,0.99664 -13.32832,1.00113 -4.42367,-0.0296 -8.82105,-0.51701 -13.18425,-1.21069 -4.23249,-0.67343 -8.38308,-1.73058 -12.46332,-3.0278 -4.14117,-1.32369 -8.01863,-3.27287 -11.76711,-5.44824 -2.41871,-1.46014 -4.78708,-3.00135 -7.17011,-4.5185 0,0 15.30204,-9.83528 15.30204,-9.83528 l 0,0 c 2.34334,1.51631 4.67637,3.05159 7.08723,4.45983 3.68461,2.06807 7.50459,3.88701 11.56322,5.10563 4.03039,1.20719 8.12083,2.20441 12.2874,2.81906 4.31117,0.61594 8.65334,1.02907 13.01398,0.9784 4.40315,-0.0741 8.79934,-0.37953 13.12368,-1.26453 4.25827,-0.87744 8.50162,-1.89262 12.56537,-3.46402 1.67075,-0.67771 2.12513,-0.83111 3.7408,-1.6077 0.58847,-0.28286 2.30869,-1.21888 1.7467,-0.8865 -25.139,14.86785 -16.14351,9.44586 -10.69984,6.16593 3.12728,-2.11868 6.09231,-4.46138 8.60417,-7.30317 2.55809,-2.85809 5.05725,-5.78998 7.07504,-9.06475 1.7504,-3.04825 3.25584,-6.21588 3.90797,-9.70125 0.59782,-3.35352 0.88568,-6.74919 0.58161,-10.15432 -0.35858,-3.28903 -0.96625,-6.55667 -2.29307,-9.60987 -1.34488,-2.96363 -3.03207,-5.73258 -5.33359,-8.06357 -2.43226,-2.50819 -4.98767,-4.89831 -7.74848,-7.04491 -2.92087,-2.18864 -5.99248,-4.16094 -9.38726,-5.54452 -3.4665,-1.47073 -6.98698,-2.80962 -10.61302,-3.83912 -3.65167,-1.1076 -7.31658,-2.18436 -10.89122,-3.52654 -3.47888,-1.32681 -6.933,-2.74482 -10.19291,-4.55634 -3.05726,-1.76655 -5.99626,-3.72797 -8.17259,-6.56892 -1.97514,-2.62743 -3.74547,-5.41466 -4.93118,-8.49667 -1.11809,-3.00652 -2.09309,-6.08731 -2.33706,-9.30612 -0.18754,-3.00651 -0.001,-6.00493 0.5168,-8.97533 0.49683,-2.97929 1.14514,-5.93906 2.31509,-8.73714 1.09612,-2.53135 2.33901,-5.00084 3.82173,-7.33051 1.2774,-1.91881 2.64739,-3.70917 4.57792,-5.02554 6.86117,-3.93404 13.70844,-9.25784 21.61276,-11.29732 2.27197,-0.46331 4.58016,-0.68081 6.89632,-0.7749 2.4889,-0.0774 4.97798,-0.0309 7.46458,0.10319 2.24214,0.0986 4.48386,0.20721 6.72638,0.29714 1.51576,0.0484 3.03288,0.0817 4.54592,0.18961 0,0 -15.17187,10.84603 -15.17187,10.84603 z"
       inkscape:connector-curvature="0" />
    <path
       style="fill:#ff0000;fill-opacity:1;stroke:#000000;stroke-opacity:1"
       id="path4133"
       d="m 97.460572,705.47799 c 1.180514,0.20227 2.339691,0.51286 3.485048,0.86105 1.7275,0.57127 3.44907,1.14973 5.13447,1.83687 1.83067,0.72244 3.60738,1.5685 5.37979,2.42126 1.95887,0.98414 3.94194,1.91763 5.94556,2.80673 2.27001,1.04823 4.61962,1.90162 6.98475,2.70556 2.69389,0.9026 5.42063,1.69837 8.15874,2.45405 2.93905,0.80597 5.91388,1.46814 8.897,2.08699 3.22671,0.66276 6.46942,1.24252 9.7395,1.64148 3.514,0.43166 7.05129,0.57353 10.58818,0.63111 3.9411,0.0477 7.87518,-0.16956 11.80172,-0.48287 4.47208,-0.36783 8.89494,-1.13738 13.27756,-2.08013 4.89827,-1.08433 9.69399,-2.56184 14.46944,-4.08586 4.9982,-1.61989 9.94997,-3.37765 14.87005,-5.21997 5.42015,-2.00999 10.72011,-4.31491 15.92416,-6.82746 6.52313,-3.08006 28.47799,-15.9705 1.55187,-0.45868 3.55645,-2.10469 1.79245,-1.05058 5.29229,-3.16185 0,0 16.68994,-6.44719 16.68994,-6.44719 l 0,0 c -3.51589,2.13952 -1.74393,1.07184 -5.31619,3.20253 -10.63741,6.15267 -21.16437,12.59799 -32.21206,18.01441 -5.2733,2.47272 -10.62934,4.76124 -16.10021,6.76483 -4.94837,1.82617 -9.92377,3.58015 -14.95345,5.17103 -4.82382,1.50874 -9.67521,2.94767 -14.62821,3.97614 -4.45975,0.88929 -8.95225,1.62626 -13.49311,1.94887 -3.97889,0.28182 -7.96647,0.46136 -11.9566,0.37879 -3.5876,-0.0933 -7.17362,-0.29034 -10.73291,-0.77198 -3.30419,-0.46035 -6.58951,-1.04361 -9.85368,-1.73381 -3.01659,-0.64202 -6.02409,-1.32982 -8.99391,-2.16535 -2.76724,-0.78183 -5.52584,-1.59647 -8.24788,-2.52544 -2.4141,-0.84254 -4.807,-1.74444 -7.13516,-2.80525 -2.0075,-0.91247 -3.992535,-1.87164 -5.980979,-2.82467 -1.758199,-0.81323 -3.527314,-1.60352 -5.335846,-2.29966 -1.661305,-0.62188 -3.347522,-1.1832 -5.066053,-1.626 -1.075228,-0.24001 -2.170418,-0.51284 -3.280518,-0.41713 0,0 15.096698,-10.9684 15.096698,-10.9684 z"
       inkscape:connector-curvature="0" />
    <path
       style="fill:#ff0000;fill-opacity:1;stroke:#000000;stroke-opacity:1"
       id="path4135"
       d="m 181.69706,727.25692 c 1.05185,0.87026 1.91189,1.92663 2.77845,2.97292 1.89443,2.3737 2.65999,5.31609 3.40629,8.19897 1.21363,5.21289 2.09994,10.49558 3.00447,15.76887 1.09824,6.3524 2.0678,12.72565 2.99746,19.10455 0.96115,6.61651 1.79709,13.25001 2.58592,19.88895 0.7948,6.79566 1.46288,13.60522 2.11545,20.41573 0.65842,6.54228 1.12685,13.10103 1.57356,19.66046 0.46829,6.27914 0.51371,12.5786 0.42583,18.87123 -0.10505,6.29316 -0.63191,12.56394 -1.43988,18.80257 -0.84073,6.34488 -2.59457,12.49511 -4.72512,18.5126 -2.17443,5.94894 -5.12422,11.55068 -8.44324,16.92932 -3.24884,5.27627 -7.55972,9.67853 -12.22378,13.69904 -9.26238,7.25278 -19.5927,13.17305 -30.12286,18.36415 -4.94843,2.45742 -10.23816,3.99867 -15.64863,5.01274 -5.07082,0.86881 -10.20306,0.65713 -15.28383,0.0482 -4.81217,-0.5736 -9.23193,-2.36994 -13.420957,-4.72129 -4.330345,-2.49204 -7.706612,-6.01151 -10.540359,-10.0679 -2.740383,-4.10641 -4.305465,-8.68259 -4.905999,-13.55074 -0.303866,-3.68113 0.669544,-7.01727 2.418109,-10.20289 0,0 16.674716,-7.35624 16.674716,-7.35624 l 0,0 c -1.95852,2.76085 -3.139964,5.70697 -3.024116,9.16119 0.381496,4.60746 1.822776,8.9063 4.412546,12.76986 2.70874,3.82445 5.96537,7.08849 10.12358,9.34836 4.07816,2.14777 8.37394,3.71197 12.99804,4.15522 4.97332,0.48242 9.98346,0.55037 14.90582,-0.46138 5.30568,-1.16334 10.47474,-2.83346 15.3042,-5.35962 6.7294,-3.52641 4.17404,-2.23423 -10.32177,6.14628 -0.84108,0.48625 1.67775,-0.98049 2.50433,-1.49101 1.79572,-1.10907 3.21474,-2.0533 4.92688,-3.29 0.8109,-0.58571 1.60112,-1.19952 2.40168,-1.79928 4.71592,-3.8459 9.12948,-8.05217 12.45896,-13.19616 3.38743,-5.24991 6.3862,-10.7403 8.62243,-16.58873 2.18789,-5.89113 3.99059,-11.92127 4.8796,-18.15987 0.8462,-6.17537 1.40387,-12.38429 1.53718,-18.61937 0.11802,-6.25007 0.0703,-12.50514 -0.35234,-18.7447 -0.41206,-6.55504 -0.84938,-13.10947 -1.48597,-19.64728 -0.63871,-6.79666 -1.30908,-13.5907 -2.1119,-20.37027 -0.78569,-6.62267 -1.61711,-13.24019 -2.57553,-19.84038 -0.92965,-6.35194 -1.90984,-12.69689 -3.05867,-19.01347 -0.93414,-5.18637 -1.85692,-10.38339 -3.16916,-15.49037 -0.7468,-2.58884 -1.49733,-5.24585 -3.29967,-7.32602 -0.83027,-0.93712 -1.68203,-1.86005 -2.69649,-2.60387 0,0 15.79477,-9.93041 15.79477,-9.93041 z"
       inkscape:connector-curvature="0" />
    <path
       style="fill:#ff0000;fill-opacity:1;stroke:#000000;stroke-opacity:1"
       id="path4137"
       d="m 384.07272,838.3677 c -1.02895,-1.0576 -2.18772,-1.97642 -3.34984,-2.88115 -2.26265,-1.7481 -4.72265,-3.21066 -7.20597,-4.6176 -3.07936,-1.73662 -6.30773,-3.17938 -9.56601,-4.54126 -3.35733,-1.3969 -6.84007,-2.43658 -10.36565,-3.30671 -3.51518,-0.83621 -7.11048,-1.16907 -10.71329,-1.27695 -3.74862,-0.0703 -7.47283,0.3285 -11.16962,0.90698 -3.82535,0.59565 -7.51143,1.74988 -11.14702,3.0461 -3.78287,1.36352 -7.37234,3.17556 -10.83546,5.20514 25.40332,-14.45865 15.44948,-9.35952 10.31887,-5.56719 -1.8021,1.33203 -3.45636,2.80281 -5.10408,4.31752 -3.43596,3.21709 -6.48252,6.80658 -9.3845,10.5028 -2.93924,3.7789 -5.46379,7.84672 -7.83737,11.99653 -2.38609,4.18632 -4.40765,8.55992 -6.28138,12.99446 -1.80171,4.24641 -3.17988,8.64883 -4.40539,13.09015 -1.12727,4.10877 -1.96341,8.2861 -2.59622,12.49706 -0.58066,4.01296 -0.74698,8.06613 -0.67878,12.11547 0.10133,3.98948 0.82678,7.90837 1.82529,11.75964 1.00469,3.72327 2.60201,7.22675 4.45491,10.59442 1.6862,3.03878 3.95633,5.60236 6.59605,7.83219 2.61854,2.12016 5.71476,3.3441 8.90115,4.313 3.37686,0.93988 6.86408,1.42396 10.35548,1.65945 3.43934,0.16485 6.85188,-0.30135 10.22128,-0.93899 3.42038,-0.64209 6.67684,-1.80113 9.82212,-3.26475 0.54027,-0.27303 1.08372,-0.53988 1.62081,-0.8191 1.2075,-0.62776 2.01272,-1.07778 3.19332,-1.75349 0.51999,-0.29761 2.07348,-1.20164 1.5542,-0.9028 -14.29811,8.22841 -18.77747,10.94848 -12.62297,7.23042 2.93485,-1.69915 5.6669,-3.64308 8.15048,-5.94884 2.75874,-2.61528 5.09855,-5.60504 7.26326,-8.71697 2.40276,-3.59513 4.37673,-7.44799 6.30032,-11.3131 1.84157,-3.75831 3.60826,-7.55284 5.23681,-11.40832 1.6502,-3.98576 3.06183,-8.06368 4.44257,-12.14872 1.3475,-3.98233 2.5922,-7.99703 3.72455,-12.04551 1.17019,-4.26447 2.1779,-8.57088 3.15712,-12.88244 0.88614,-3.94449 1.68597,-7.90751 2.53088,-11.86087 0.61301,-2.77339 1.19266,-5.55395 1.79789,-8.32901 0.22975,-1.2194 0.5714,-2.41692 0.78727,-3.63883 18.03971,-8.92142 17.97519,-13.00465 15.98441,-4.81431 -0.52423,2.15456 -0.9032,4.34022 -1.27161,6.52562 -0.51493,3.02565 -0.92886,6.06671 -1.32103,9.11026 -0.43355,3.42245 -0.79519,6.85325 -1.12766,10.2868 -0.35343,3.73138 -0.63359,7.46909 -0.91063,11.20675 -0.27167,3.72275 -0.50514,7.44811 -0.73106,11.17386 -0.22654,3.73685 -0.42018,7.47555 -0.60043,11.21489 -0.18686,3.64725 -0.29213,7.29796 -0.34714,10.94939 -0.0602,3.5135 -0.008,7.02686 0.13727,10.53746 0.16168,3.52308 0.5398,7.0302 0.97707,10.52809 0.41387,3.33696 1.01712,6.6454 1.74623,9.9267 0.69467,3.11153 1.7272,6.12618 2.93512,9.0715 1.12722,2.75701 2.67208,5.3028 4.28919,7.79294 1.0532,1.55089 0.5235,0.78311 1.5888,2.30355 0,0 -15.83652,9.32014 -15.83652,9.32014 l 0,0 c -1.07387,-1.56003 -0.53854,-0.77107 -1.60554,-2.36718 -1.66028,-2.59544 -3.25226,-5.24376 -4.42907,-8.10081 -1.24476,-3.03996 -2.32313,-6.14764 -3.05738,-9.3543 -0.76002,-3.33456 -1.3803,-6.69944 -1.80761,-10.09391 -0.44665,-3.54239 -0.8411,-7.09242 -1.03869,-10.65882 -0.17794,-3.54392 -0.24365,-7.09163 -0.17845,-10.63993 0.0502,-3.67295 0.14634,-7.34526 0.33678,-11.01393 0.18293,-3.74459 0.36684,-7.48919 0.58725,-11.2318 0.2223,-3.73388 0.4617,-7.46675 0.72722,-11.19783 0.268,-3.74534 0.55985,-7.48902 0.87849,-11.23041 0.3032,-3.44298 0.63394,-6.8837 1.05429,-10.31465 0.36507,-3.04824 0.75253,-6.09426 1.21496,-9.12946 0.33161,-2.1932 0.6415,-4.39115 1.0786,-6.56656 1.80968,-8.49733 1.39225,-3.24706 17.66395,-11.39253 0.0334,-0.0167 -0.0379,0.0643 -0.0568,0.0965 -0.41716,1.2106 -0.70829,2.46381 -1.03156,3.70123 -0.69873,2.7915 -1.34218,5.59582 -1.99416,8.39855 -0.90797,3.96418 -1.75501,7.94135 -2.62269,11.91445 -0.97682,4.33426 -1.99315,8.66033 -3.12404,12.95733 -1.09663,4.08162 -2.2774,8.13738 -3.6607,12.1326 -1.39008,4.1113 -2.79408,8.22002 -4.38969,12.25722 -1.58544,3.90994 -3.34331,7.74105 -5.20733,11.52654 -1.91262,3.90893 -3.86174,7.80845 -6.15523,11.51172 -2.07954,3.21686 -4.3497,6.31035 -7.05391,9.03801 -2.3995,2.45855 -4.96465,4.64435 -7.98709,6.31849 -8.13061,5.10257 -16.43669,10.02674 -25.10374,14.17258 -3.26067,1.33716 -6.62593,2.37666 -10.11483,2.93114 -3.4704,0.53377 -6.97754,0.88012 -10.48979,0.5578 -3.57704,-0.36935 -7.15049,-0.91238 -10.58838,-2.00054 -3.36056,-1.13934 -6.59461,-2.58926 -9.31886,-4.91919 -2.73895,-2.43052 -5.10676,-5.19475 -6.87842,-8.42037 -1.90959,-3.50453 -3.571,-7.13938 -4.64432,-10.99612 -1.06341,-3.97349 -1.84632,-8.01817 -2.01782,-12.13918 -0.12647,-4.13987 0.0121,-8.28707 0.56094,-12.39672 0.59521,-4.285 1.40505,-8.53678 2.54004,-12.71449 1.20395,-4.51609 2.56451,-8.99552 4.34389,-13.32285 1.85528,-4.49356 3.83471,-8.93852 6.20089,-13.19108 2.34104,-4.21842 4.81583,-8.36685 7.71888,-12.22902 2.85931,-3.77129 5.86826,-7.43503 9.25253,-10.75296 7.53311,-7.34371 16.03487,-12.25814 25.69029,-17.07383 3.54985,-1.93573 7.21139,-3.66625 11.05212,-4.95175 3.71134,-1.23285 7.48762,-2.26646 11.37282,-2.78623 3.77351,-0.49647 7.5733,-0.81667 11.38341,-0.64209 3.68761,0.20983 7.36285,0.63774 10.94391,1.57909 3.57433,0.95548 7.10111,2.08077 10.50701,3.53675 3.31285,1.41225 6.59255,2.90946 9.72654,4.69084 2.56838,1.45985 5.11882,2.96392 7.49013,4.73287 1.22012,0.91527 2.41164,1.86494 3.58694,2.83662 0,0 -15.85885,9.90582 -15.85885,9.90582 z"
       inkscape:connector-curvature="0" />
    <path
       style="fill:#ff0000;fill-opacity:1;stroke:#000000;stroke-opacity:1"
       id="path4139"
       d="m 441.31989,803.63463 c 0.80276,1.06735 1.62493,2.11989 2.4199,3.19316 1.26078,1.67942 2.444,3.41444 3.62769,5.1484 1.49022,2.17278 2.79346,4.45965 4.06382,6.76499 1.54898,2.83622 2.961,5.74432 4.35275,8.66 1.59181,3.34224 3.036,6.75202 4.43702,10.17774 1.57078,3.9356 2.99988,7.92596 4.36863,11.93569 1.49383,4.43575 2.8903,8.90345 4.24403,13.38368 1.45164,4.85781 2.70592,9.77066 3.89394,14.69851 1.23695,5.15674 2.31161,10.34997 3.34166,15.55132 1.09139,5.27451 1.93659,10.59012 2.58586,15.93562 0.6388,5.71374 0.94575,11.45718 1.24302,17.19665 0.31721,5.42142 0.3526,10.8521 0.21984,16.27937 -0.0789,2.58286 -0.21255,5.16345 -0.34593,7.7439 0,0 -16.14336,8.10453 -16.14336,8.10453 l 0,0 c 0.17423,-2.57194 0.34616,-5.14436 0.43303,-7.72115 0.15546,-5.39015 0.14291,-10.78397 -0.13413,-16.17083 -0.26158,-5.70103 -0.52635,-11.40773 -1.18476,-17.07981 -0.64987,-5.29903 -1.49907,-10.5667 -2.56176,-15.79964 -1.01472,-5.17853 -2.07743,-10.34843 -3.3109,-15.48 -1.1878,-4.88892 -2.45352,-9.75935 -3.90077,-14.57875 -1.35079,-4.45433 -2.75736,-8.89219 -4.25966,-13.29794 -1.37451,-3.9661 -2.80219,-7.91478 -4.38161,-11.80463 -1.40486,-3.38429 -2.85982,-6.74937 -4.45192,-10.05047 -1.3877,-2.87422 -2.7957,-5.74136 -4.36301,-8.52306 -1.2699,-2.23995 -2.56829,-4.46374 -4.04692,-6.57476 -1.18449,-1.70101 -2.37826,-3.39644 -3.65489,-5.03026 -0.81759,-1.04227 -1.65104,-2.07222 -2.5298,-3.06392 0,0 16.03823,-9.59834 16.03823,-9.59834 z"
       inkscape:connector-curvature="0" />
    <path
       style="fill:#ff0000;fill-opacity:1;stroke:#000000;stroke-opacity:1"
       id="path4141"
       d="m 449.0901,861.42561 c 0.4337,-1.10122 1.02038,-2.12798 1.58069,-3.16776 1.01374,-1.83814 2.00856,-3.68543 3.05367,-5.50614 1.51529,-2.61344 3.13774,-5.16214 4.84291,-7.65519 1.99907,-2.88543 4.09205,-5.70282 6.3594,-8.38282 2.34173,-2.73251 4.99502,-5.16434 7.70296,-7.52438 2.54617,-2.23938 5.29768,-4.21654 8.1238,-6.08247 7.67613,-4.72411 15.15108,-9.99535 23.65916,-13.05703 2.58108,-0.90327 5.27241,-1.46642 7.98177,-1.8075 2.52889,-0.29412 5.08013,-0.29487 7.62215,-0.26048 2.43798,0.0436 4.81207,0.58967 7.14203,1.26279 2.4185,0.64275 4.59395,1.83511 6.70461,3.14377 2.29808,1.42469 4.25523,3.27236 6.09518,5.23426 1.9169,2.10071 3.61362,4.38648 5.37307,6.61713 1.41625,1.78734 2.873,3.5426 4.42237,5.21629 1.11858,1.16841 2.30954,2.26745 3.57184,3.27862 0.86573,0.65166 1.78837,1.25958 2.823,1.60095 0.70694,0.21636 1.33776,0.0353 1.94353,-0.34115 4.99837,-4.11157 2.5858,-0.94726 -14.85334,8.46011 -0.27544,0.14858 0.30306,-0.54868 0.42855,-0.83538 0.33257,-0.75985 0.56116,-1.55868 0.81181,-2.3469 0.92025,-3.21376 1.64392,-6.47965 2.43172,-9.72751 0.70979,-3.0988 1.58349,-6.1407 2.82099,-9.06996 1.21048,-2.74891 2.89187,-5.23364 4.81521,-7.52647 6.23094,-6.41709 15.4562,-10.27958 22.78907,-14.49466 2.71025,-1.36201 5.61944,-2.20618 8.58284,-2.79462 2.96874,-0.62877 5.91714,-0.50928 8.85897,0.14327 3.40723,0.93663 6.35084,2.80459 9.04773,5.03072 3.5132,3.16506 5.90433,7.23398 8.04321,11.3926 2.78742,5.96297 4.65965,12.29772 6.61169,18.56862 2.22015,6.87985 3.86398,13.91797 5.38077,20.97952 1.69155,8.16336 3.34323,16.33494 5.00434,24.50454 1.61622,7.87998 3.17434,15.77151 4.6972,23.67001 1.42116,7.35899 2.84393,14.71779 4.31172,22.06764 1.29768,6.72168 2.854,13.38757 4.6028,20.00504 1.52424,5.98926 3.68265,11.76725 6.30089,17.35619 2.45333,5.2618 5.75267,9.97163 9.75459,14.15292 4.82039,4.47651 10.89599,6.0803 17.23061,6.97441 7.75024,0.76574 15.52682,0.0174 23.23891,-0.7915 0,0 -14.15839,10.50533 -14.15839,10.50533 l 0,0 c -7.83217,0.75568 -15.73664,1.43565 -23.58665,0.49168 -6.83481,-1.13 -12.88765,-2.95452 -18.03417,-7.85276 -4.09895,-4.35142 -7.51603,-9.21404 -10.03263,-14.65932 -2.6545,-5.69482 -4.85094,-11.57718 -6.37655,-17.68196 -1.74299,-6.66343 -3.30341,-13.37406 -4.57539,-20.14465 -1.44253,-7.36647 -2.83543,-14.74257 -4.24593,-22.11522 -1.50095,-7.90664 -3.02089,-15.80974 -4.59988,-23.70121 -1.63845,-8.15347 -3.3312,-16.29574 -5.0957,-24.42294 -1.56359,-6.99105 -3.22109,-13.96529 -5.40228,-20.79462 -1.91594,-6.15748 -3.78942,-12.37261 -6.65972,-18.1685 -2.09689,-3.90547 -4.41123,-7.74754 -7.86032,-10.62372 -2.58383,-1.97032 -5.38868,-3.61959 -8.62765,-4.22511 -2.83437,-0.38161 -5.65476,-0.24743 -8.43781,0.45889 -2.87092,0.73362 -5.6744,1.70738 -8.25685,3.18569 27.50935,-15.95702 13.8405,-8.85744 8.41718,-4.12989 -2.01777,2.08383 -3.74899,4.41028 -5.05403,7.01136 -1.3539,2.81294 -2.31818,5.74835 -3.0166,8.79305 -0.80939,3.23753 -1.55415,6.48983 -2.30855,9.74043 -2.02891,8.07907 -5.29155,12.90889 -17.84845,13.94994 -0.92367,-0.0154 -1.79661,-0.24204 -2.61693,-0.6759 -1.08497,-0.58566 -2.11804,-1.26047 -3.04888,-2.07328 -1.27838,-1.11123 -2.50668,-2.28164 -3.6364,-3.54521 -1.53155,-1.74125 -2.99375,-3.54104 -4.40765,-5.37914 -1.69676,-2.20089 -3.35462,-4.44102 -5.26509,-6.4651 -1.7748,-1.81541 -3.66644,-3.50976 -5.87113,-4.79576 -2.02606,-1.17556 -4.1381,-2.16375 -6.42956,-2.70866 -2.25164,-0.55308 -4.54068,-0.92557 -6.86839,-0.87924 -2.48144,0.005 -4.97095,0.0705 -7.4247,0.47575 -2.62782,0.47614 -5.23523,1.08934 -7.71382,2.10556 -1.09908,0.45603 -1.51764,0.60554 -2.58342,1.1454 -0.43381,0.21975 -1.70335,0.93894 -1.28303,0.69437 25.68644,-14.94589 17.24492,-10.00238 11.72474,-6.76501 -2.86502,1.79075 -5.6743,3.67577 -8.2548,5.86503 -2.72592,2.29189 -5.41938,4.63508 -7.8119,7.28155 -2.32039,2.58014 -4.42141,5.33629 -6.40924,8.18034 -1.69297,2.42505 -3.2994,4.90556 -4.7921,7.45977 -1.01015,1.78235 -2.0187,3.56585 -2.92728,5.40299 -0.53564,0.98873 -1.10832,1.96924 -1.56736,2.99208 0,0 -16.96511,7.78051 -16.96511,7.78051 z"
       inkscape:connector-curvature="0" />
  </g>
</svg>
